<!-- Created with Inkscape (http://www.inkscape.org/) -->
<svg id="svg3150" xmlns:rdf="http://www.w3.org/1999/02/22-rdf-syntax-ns#" xmlns="http://www.w3.org/2000/svg" height="283.14" width="250.82" version="1.1" xmlns:cc="http://creativecommons.org/ns#" xmlns:dc="http://purl.org/dc/elements/1.1/">
 <g transform="translate(-180.30349,-250.79205)">
  <path d="m307.45,270.79c-16.304,1.3129-32.357,8.89-43.781,20.562-11.964,15.716-17.5,35.39-21.644,54.428-2.521,13.615,0.0682,28.574,10.05,38.728,4.9576,11.197,17.517,11.282,26.486,16.666,1.4034,7.7556,15.42,8.9328,23.139,6.5084,12.229-0.17713,22.835-6.2129,30.056-15.936,14.604-12.742,23.427-32.153,22.736-51.613-0.26566-19.786-1.4597-42.883-17.544-56.825-8.2268-7.1207-18.185-13.211-29.498-12.52zm-1.1562,7.1875c13.78-0.98957,25.929,8.5137,33.884,18.868,8.7226,16.633,8.742,36.278,7.7093,54.6-2.08,14.687-9.5018,28.791-20.946,38.334-5.9891,9.6534-16.55,13.024-27.322,13.593-10.142,2.5404-8.1103-1.7688-14.932-6.4926-9.2231-7.5304-23.506-6.0783-28.581-18.775-11.973-12.75-8.0457-31.865-3.29-46.846,5.8294-16.291,10.683-36.091,27.788-44.151,7.9204-4.547,16.509-8.2649,25.689-9.131zm16.281,86.062c-2.2148,0.025-3.5491,0.73719-4.1991,1.71-0.65004,0.97276-0.61592,2.2061-0.0941,3.2734,0.52181,1.0673,1.5313,1.9686,2.832,2.2772,1.3007,0.30862,2.8926,0.0246,4.5793-1.2787,1.17-2.1446,0.96004-4.0266-0.78507-5.4524-0.60376-0.33006-1.381-0.52197-2.3331-0.52947zm-41.719,1.25c-3.5923,4.9981,8.2412,13.073,13.12,7.0522,5.8921-4.2667-0.70737-5.695-5.0888-5.5209-2.7012-0.30902-4.9443-2.1086-8.0312-1.5312zm27.062,17.625zm-85.875,0.34375c-2.9903,3.5932-6.8448,10.333-7.5624,16.094-4.4571-3.8494-16.816-9.7733-13.001,1.3349,2.6839,9.1158,16.821,9.7845,12.48,21.115,6.4265,4.4844,7.6824-15.77,16.271-5.6373,18.903,11.528,35.623,26.779,56.441,35.068,11.631,3.5232-8.6226,8.8855-12.376,13.359-10.773,7.1939-21.729,14.116-32.409,21.448-0.14761-4.9619,2.7411-22.479-5.9062-15.656-1.4371,7.5976-3.8734,16.487-12.526,11.822-6.0838,6.6869,10.461,10.552,4.9215,18.838,4.585,8.4033,10.611-1.6062,13.511-1.1283,6.1388,4.813,19.976,0.42911,12.04-8.0502-11.758-4.2102,7.736-9.2858,12.295-14.28,11.304-6.9418,22.611-13.91,34.26-20.263,25.247,10.842,50.704,21.795,73.952,36.554,7.4192,4.0337,11.402,9.6616,11.183,16.583,4.5736,0.28682,6.3985-6.4388,9.3658,1.3005,9.3659,6.7616,14.63-8.1653,9.5625-15.281,10.597-6.291,1.0648-18.271-6.8648-13.654-1.5445-4.55-9.3556-12.119-10.542-3.502,3.015,6.5904,1.7201,14.08-4.6963,6.5059-22.071-14.439-46.513-24.81-70.929-34.568,21.766-13.208,46.764-19.361,69.239-31.141,8.558-7.9692,0.28243,19.655,11.042,9.735,1.4808-3.1746,2.374-12.869,4.6804-12.781,6.9803,6.4678,20.656-0.57117,10.921-8.1375-9.203-3.9671-15.162-7.8546-13.167-18.287-8.2754-3.3358-0.28516,14.806-9.3972,8.1592-3.2223-0.73491-13.653-1.9097-7.5435,3.9644,9.9,9.1836-12.168,10.776-18.363,16.084-15.324,7.1379-31.424,12.731-45.613,22.135-9.4557,9.9049-20.27,3.3078-30.454-1.8186-16.773-7.2016-30.16-20.06-45.97-28.912,3.8249-10.691-15.745-5.7024-9.8948-15.788-1.2749-3.511-0.30407-11.017-4.9489-11.212zm0.0937,1.8438z" fill-rule="nonzero" fill="#ccc"/>
 </g>
</svg>
